<svg width="1237" height="220" viewBox="0 0 1237 220" fill="none" xmlns="http://www.w3.org/2000/svg">
<path d="M411.14 56C440.97 56 465.152 80.1766 465.152 110C465.152 139.823 440.97 164 411.14 164C381.31 164 357.128 139.823 357.128 110C357.128 80.1766 381.31 56 411.14 56ZM411.14 73.4194C390.933 73.4194 374.551 89.7971 374.551 110C374.551 130.203 390.933 146.581 411.14 146.581C431.347 146.581 447.729 130.203 447.729 110C447.729 89.7971 431.347 73.4194 411.14 73.4194ZM552.268 56C582.098 56 606.28 80.1766 606.28 110C606.28 139.823 582.098 164 552.268 164C522.438 164 498.256 139.823 498.256 110C498.256 80.1766 522.438 56 552.268 56ZM552.268 73.4194C532.061 73.4194 515.679 89.7971 515.679 110C515.679 130.203 532.061 146.581 552.268 146.581C572.475 146.581 588.857 130.203 588.857 110C588.857 89.7971 572.475 73.4194 552.268 73.4194ZM949.517 56C979.347 56 1003.53 80.1766 1003.53 110C1003.53 139.823 979.347 164 949.517 164C919.687 164 895.505 139.823 895.505 110C895.505 80.1766 919.687 56 949.517 56ZM949.517 73.4194C929.31 73.4194 912.928 89.7971 912.928 110C912.928 130.203 929.31 146.581 949.517 146.581C969.724 146.581 986.106 130.203 986.106 110C986.106 89.7971 969.724 73.4194 949.517 73.4194ZM817.083 56C835.529 56 852.398 65.3313 862.302 80.4811L847.724 90.0138C841.004 79.7345 829.588 73.4194 817.083 73.4194C796.882 73.4194 780.506 89.7971 780.506 110C780.506 130.203 796.882 146.581 817.083 146.581C829.631 146.581 841.082 140.221 847.791 129.884L862.401 139.368C852.513 154.603 835.593 164 817.083 164C787.263 164 763.089 139.823 763.089 110C763.089 80.1766 787.263 56 817.083 56ZM675.973 57.7419C705.728 57.7419 729.985 81.0606 729.985 110C729.985 138.939 705.728 162.258 675.973 162.258H639.384V144.839H675.973C696.255 144.839 712.561 129.163 712.561 110C712.561 90.8372 696.255 75.1613 675.973 75.1613H639.384V57.7419H675.973ZM1073.22 57.7419C1102.98 57.7419 1127.23 81.0606 1127.23 110C1127.23 138.939 1102.98 162.258 1073.22 162.258H1036.63V144.839H1073.22C1093.5 144.839 1109.81 129.163 1109.81 110C1109.81 90.8372 1093.5 75.1613 1073.22 75.1613H1036.63V57.7419H1073.22ZM270.012 56C288.699 56 305.759 65.5717 315.605 81.0376L300.906 90.3909C294.226 79.8976 282.68 73.4194 270.012 73.4194C249.805 73.4194 233.423 89.7971 233.423 110C233.423 130.203 249.805 146.581 270.012 146.581C285.613 146.581 298.933 136.812 304.196 123.065H268.012V105.646H323.85L324.024 110C324.024 139.823 299.842 164 270.012 164C240.182 164 216 139.823 216 110C216 80.1766 240.182 56 270.012 56ZM1160.34 75.1613H1237V57.7419H1160.34V75.1613ZM1160.34 162.258H1237V144.839H1160.34V162.258ZM1160.34 118.71H1237V101.29H1160.34V118.71Z" fill="white"/>
<path fill-rule="evenodd" clip-rule="evenodd" d="M156 0L0 109.128L156 220V119.226L120.985 96.6624L101.279 110L134.074 131.333V177.021L38.5112 109.128L156 27.0324V0Z" fill="url(#paint0_linear_349_77)"/>
<path fill-rule="evenodd" clip-rule="evenodd" d="M156 35.5381L51.5738 109.189L126.631 162.461V134.903L88.7328 110.297L156 62.8594V35.5381Z" fill="url(#paint1_linear_349_77)"/>
<defs>
<linearGradient id="paint0_linear_349_77" x1="171.6" y1="54.5417" x2="60.2435" y2="184.826" gradientUnits="userSpaceOnUse">
<stop stop-color="#105EFF"/>
<stop offset="0.413357" stop-color="#009BFF"/>
<stop offset="0.735652" stop-color="#105EFF"/>
<stop offset="1" stop-color="#090E43"/>
</linearGradient>
<linearGradient id="paint1_linear_349_77" x1="67.8071" y1="146.666" x2="168.75" y2="38.638" gradientUnits="userSpaceOnUse">
<stop stop-color="#105EFF"/>
<stop offset="0.413357" stop-color="#009BFF"/>
<stop offset="0.735652" stop-color="#105EFF"/>
<stop offset="1" stop-color="#090E43"/>
</linearGradient>
</defs>
</svg>
